<svg xmlns="http://www.w3.org/2000/svg" xmlns:xlink="http://www.w3.org/1999/xlink" version="1.1" id="Layer_1" x="0px" y="0px" width="512px" height="512px" viewBox="0 0 512 512" enable-background="new 0 0 512 512" xml:space="preserve">
<path d="M255.335 12.993c-85.01 0-153.922 68.914-153.922 153.922c0 85.01 68.91 153.92 153.92 153.92 c85.007 0 153.917-68.91 153.917-153.918C409.252 81.91 340.34 12.99 255.34 12.993z"/>
<path d="M479.367 499.008c0.016-0.908 0.039-1.813 0.039-2.726c0-64.675-32.098-168.729-82.37-206.696 c-34.585 39.309-85.228 64.144-141.701 64.144s-107.119-24.838-141.705-64.144c-50.272 37.968-82.371 142.021-82.371 206.7 c0 0.91 0.03 1.82 0.04 2.726H479.367z"/>
<g>
</g>
<g>
</g>
<g>
</g>
<g>
</g>
<g>
</g>
<g>
</g>
</svg>
