<?xml version="1.0" encoding="utf-8"?>
<!-- Generator: Adobe Illustrator 16.0.0, SVG Export Plug-In . SVG Version: 6.00 Build 0)  -->
<!DOCTYPE svg PUBLIC "-//W3C//DTD SVG 1.1//EN" "http://www.w3.org/Graphics/SVG/1.1/DTD/svg11.dtd">
<svg version="1.1" id="Layer_1" xmlns="http://www.w3.org/2000/svg" xmlns:xlink="http://www.w3.org/1999/xlink" x="0px" y="0px"
	 width="512px" height="128px" viewBox="0 0 512 128" enable-background="new 0 0 512 128" xml:space="preserve">
<g>
	<rect y="-21" fill="none" width="512" height="200"/>
	<path d="M84.114,115.069h-7.711L61.325,63.021c-0.046-0.091-0.069-0.16-0.069-0.207c0-0.045-0.023-0.114-0.069-0.207v0.275
		l-16.937,52.187h-7.642l-21.274-70.5h9.57l16.042,55.146c0,0.139,0.022,0.253,0.069,0.345c0-0.092,0.045-0.229,0.138-0.413
		L58.64,44.569h6.127l15.697,55.146v0.069c0.045-0.045,0.069-0.092,0.069-0.138l16.317-55.078h9.088L84.114,115.069z"/>
	<path d="M137.125,116.722c-5.141,0-9.754-0.838-13.838-2.513c-4.085-1.675-7.642-4.234-10.671-7.677
		c-5.967-6.792-8.95-15.56-8.95-26.3c0-5.875,0.768-11.073,2.307-15.594c1.537-4.521,3.89-8.457,7.057-11.808
		c6.242-6.609,14.503-9.914,24.785-9.914c10.052,0,18.038,3.305,23.959,9.914c5.829,6.564,8.744,15.606,8.744,27.126
		c0,10.878-2.984,19.714-8.95,26.507C155.599,113.303,147.452,116.722,137.125,116.722z M137.607,51.11
		c-7.573,0-13.632,2.547-18.176,7.642c-4.499,5.049-6.747,12.255-6.747,21.618c0,8.537,2.203,15.377,6.609,20.517
		c4.452,5.095,10.465,7.642,18.038,7.642c7.711,0,13.677-2.501,17.9-7.504c4.176-5.002,6.265-12.071,6.265-21.205
		c0-9.317-2.065-16.431-6.196-21.343C151.17,53.566,145.271,51.11,137.607,51.11z"/>
	<path d="M212.174,54.828c-3.213-2.294-6.036-3.442-8.468-3.442c-7.39-0.183-13.242,3.971-17.556,12.461v51.223h-8.606v-70.5h8.606
		v7.917c2.57-3.167,5.358-5.519,8.365-7.057c3.005-1.537,6.23-2.26,9.673-2.168c1.331,0,2.662,0.127,3.993,0.378
		c1.331,0.253,2.662,0.654,3.993,1.205V54.828z"/>
	<path d="M264.676,115.138v-9.156c-5.096,7.16-12.255,10.74-21.48,10.74c-9.363,0-17.005-3.648-22.926-10.947
		c-5.783-7.16-8.675-16.637-8.675-28.434c0-10.603,2.524-18.933,7.573-24.992h-0.069c5.048-6.288,12.14-9.432,21.274-9.432
		c3.488,0,6.529,0.391,9.122,1.17c2.593,0.781,4.854,1.779,6.782,2.995c1.927,1.217,3.567,2.571,4.923,4.063
		c1.354,1.492,2.512,2.926,3.477,4.303V11.936h8.744l-0.07,102.721L264.676,115.138z M264.676,64.811
		c-3.121-4.084-6.701-7.264-10.74-9.535c-4.04-2.272-8.331-3.66-12.875-4.166c-2.984,0.092-5.738,0.712-8.262,1.859
		c-2.525,1.148-4.682,2.846-6.472,5.095c-3.81,4.866-5.714,11.337-5.714,19.415c0,4.682,0.527,8.916,1.583,12.702
		c1.055,3.787,2.593,7.104,4.613,9.949c2.019,2.662,4.372,4.728,7.057,6.195c2.685,1.47,5.611,2.203,8.778,2.203
		c2.662,0,5.06-0.354,7.195-1.066c2.134-0.711,4.073-1.652,5.817-2.823c1.744-1.17,3.349-2.535,4.82-4.097
		c1.469-1.56,2.867-3.212,4.199-4.957V64.811z"/>
	<path d="M347.266,115.069h-7.711l-15.077-52.049c-0.046-0.091-0.069-0.16-0.069-0.207c0-0.045-0.023-0.114-0.068-0.207v0.275
		l-16.937,52.187h-7.642l-21.274-70.5h9.569l16.042,55.146c0,0.139,0.022,0.253,0.069,0.345c0-0.092,0.045-0.229,0.137-0.413
		l17.488-55.078h6.127l15.697,55.146v0.069c0.045-0.045,0.068-0.092,0.068-0.138l16.317-55.078h9.088L347.266,115.069z"/>
	<path d="M378.532,81.403c0.184,3.992,0.758,7.699,1.722,11.118c0.964,3.42,2.409,6.277,4.337,8.571
		c4.131,4.957,9.73,7.436,16.799,7.436c7.252,0,14.137-2.639,20.654-7.917l4.2,6.954c-8.492,6.104-17.212,9.156-26.162,9.156
		c-9.181,0-16.569-3.281-22.169-9.846c-2.8-3.305-4.9-7.217-6.3-11.738c-1.4-4.521-2.1-9.765-2.1-15.731
		c0-5.048,0.733-9.742,2.203-14.079c1.469-4.338,3.649-8.25,6.54-11.739c2.938-3.305,6.357-5.909,10.259-7.814
		c3.9-1.904,8.146-2.857,12.737-2.857c8.857,0,15.673,3.145,20.447,9.432c4.682,6.059,7.022,14.389,7.022,24.992v4.063H378.532z
		 M419.635,73.21c-0.413-7.114-2.227-12.576-5.438-16.386c-3.214-3.809-7.62-5.714-13.219-5.714c-3.029,0-5.783,0.516-8.262,1.549
		c-2.479,1.032-4.706,2.536-6.679,4.509c-1.79,1.928-3.271,4.223-4.44,6.885c-1.171,2.663-2.055,5.714-2.65,9.157H419.635z"/>
	<path d="M465.614,116.722c-9.318,0-16.479-3.58-21.48-10.74v9.156l-8.675-0.481l-0.068-102.721h8.743v43.856
		c3.305-4.084,6.988-7.16,11.05-9.226c4.063-2.065,8.457-3.281,13.185-3.649c9.088,0,16.179,3.145,21.274,9.432h-0.069
		c5.095,6.196,7.642,14.527,7.642,24.992c0,11.75-2.891,21.229-8.674,28.434C482.619,113.073,474.978,116.722,465.614,116.722z
		 M444.134,95.585c1.331,1.745,2.72,3.397,4.165,4.957c1.446,1.562,3.04,2.927,4.785,4.097c1.744,1.171,3.684,2.112,5.817,2.823
		c2.135,0.712,4.532,1.066,7.194,1.066c3.213,0,6.162-0.733,8.848-2.203c2.685-1.468,5.014-3.533,6.988-6.195
		c2.019-2.846,3.567-6.162,4.646-9.949c1.078-3.786,1.618-8.021,1.618-12.702c0-8.078-1.905-14.549-5.714-19.415
		c-1.837-2.249-4.006-3.947-6.507-5.095c-2.502-1.147-5.267-1.767-8.296-1.859c-9.318,0.781-17.167,5.348-23.546,13.701V95.585z"/>
</g>
<g>
</g>
<g>
</g>
<g>
</g>
<g>
</g>
<g>
</g>
<g>
</g>
</svg>
