<?xml version="1.0" encoding="utf-8"?>
<!-- Generator: Adobe Illustrator 16.0.0, SVG Export Plug-In . SVG Version: 6.00 Build 0)  -->
<!DOCTYPE svg PUBLIC "-//W3C//DTD SVG 1.1//EN" "http://www.w3.org/Graphics/SVG/1.1/DTD/svg11.dtd">
<svg version="1.1" id="Layer_1" xmlns="http://www.w3.org/2000/svg" xmlns:xlink="http://www.w3.org/1999/xlink" x="0px" y="0px"
	 width="389px" height="134px" viewBox="0 0 389 134" enable-background="new 0 0 389 134" xml:space="preserve">
<g>
	<polygon points="91.622,47.209 77.917,93.469 64.75,47.209 56.957,47.209 42.135,93.893 28.555,47.209 16.722,47.209 
		36.94,114.209 46.082,114.209 60.332,70.299 73.052,114.209 82.285,114.209 103.026,47.209 	"/>
	<path d="M132.488,45.709c-9.719,0-17.656,3.186-23.59,9.47c-3.011,3.186-5.277,6.976-6.736,11.266
		c-1.442,4.239-2.174,9.165-2.174,14.639c0,10.08,2.859,18.446,8.499,24.866c2.892,3.286,6.339,5.765,10.244,7.365
		c3.873,1.588,8.292,2.394,13.132,2.394c9.784,0,17.629-3.306,23.314-9.822c5.639-6.42,8.498-14.849,8.498-25.053
		c0-10.786-2.798-19.406-8.32-25.626C149.708,48.905,142.015,45.709,132.488,45.709z M132.05,105.271
		c-6.481,0-11.468-2.102-15.236-6.414c-3.742-4.364-5.639-10.302-5.639-17.648c0-8.081,1.933-14.348,5.745-18.626
		c3.862-4.331,8.894-6.436,15.38-6.436c6.553,0,11.432,2.013,14.915,6.153c3.499,4.161,5.273,10.354,5.273,18.41
		c0,7.892-1.796,14.045-5.333,18.282C143.587,103.217,138.646,105.271,132.05,105.271z"/>
	<path d="M201.815,47.953l-0.932-0.382c-1.307-0.535-2.637-0.932-3.953-1.18c-1.308-0.244-2.629-0.369-3.89-0.369
		c-0.002,0-0.005,0-0.008,0c-3.399-0.082-6.619,0.628-9.586,2.13c-1.919,0.972-3.757,2.287-5.492,3.927v-4.87h-10.891v67h10.891
		V66.575c3.604-6.852,8.242-10.184,14.17-10.184l0.427,0.005c1.903,0,4.223,0.959,6.898,2.85l2.366,1.673V47.953z"/>
	<path d="M249.08,54.281c-0.179-0.203-0.36-0.407-0.546-0.612c-1.316-1.448-2.924-2.776-4.779-3.947
		c-1.855-1.17-4.05-2.142-6.524-2.887c-2.484-0.747-5.416-1.126-8.713-1.126c-8.688,0-15.559,3.069-20.402,9.102
		c-4.793,5.75-7.223,13.707-7.223,23.648c0,11.01,2.762,20.012,8.21,26.758c5.648,6.962,13.043,10.492,21.978,10.492
		c7.322,0,13.358-2.391,18-7.117v5.766l10.874-0.604l0.064-96.169H249.08V54.281z M249.08,67.597v26.914
		c-1.083,1.394-2.227,2.731-3.404,3.982c-1.251,1.328-2.637,2.507-4.119,3.501c-1.466,0.984-3.121,1.786-4.92,2.386
		c-1.773,0.592-3.811,0.892-6.057,0.892c-2.608,0-5.047-0.611-7.249-1.816c-2.24-1.225-4.235-2.979-5.903-5.177
		c-1.724-2.429-3.058-5.311-3.965-8.566c-0.918-3.288-1.383-7.032-1.383-11.128c0-6.956,1.638-12.575,4.861-16.691
		c1.469-1.845,3.26-3.256,5.321-4.193c2.069-0.94,4.363-1.461,6.82-1.55c3.867,0.444,7.571,1.651,11.012,3.585
		C243.434,61.613,246.454,64.257,249.08,67.597z"/>
	<path d="M318.36,106.307l-5.419-8.972l-1.338,1.083c-5.614,4.548-11.605,6.854-17.806,6.854c-6.004,0-10.615-2.031-14.102-6.215
		c-1.604-1.909-2.829-4.34-3.643-7.224c-0.713-2.53-1.187-5.278-1.411-8.187h45.468v-5.188c0-9.92-2.25-17.861-6.681-23.595
		c-4.612-6.075-11.26-9.155-19.757-9.155c-4.377,0-8.488,0.924-12.221,2.746c-3.703,1.808-6.992,4.313-9.81,7.484
		c-2.73,3.294-4.817,7.04-6.203,11.132c-1.38,4.073-2.079,8.535-2.079,13.263c0,5.545,0.664,10.499,1.974,14.725
		c1.324,4.279,3.346,8.041,6.01,11.187c5.357,6.279,12.512,9.464,21.267,9.464c8.407,0,16.692-2.892,24.626-8.595L318.36,106.307z
		 M293.423,56.146c4.661,0,8.211,1.522,10.854,4.654c2.451,2.908,3.95,7.077,4.465,12.408h-33.499
		c0.495-2.289,1.152-4.371,1.96-6.208c0.99-2.252,2.255-4.215,3.719-5.793c1.645-1.644,3.521-2.912,5.579-3.77
		C288.556,56.581,290.885,56.146,293.423,56.146z"/>
	<path d="M361.74,96.217c-3.444-5.135-6.748-10.076-9.912-14.821l22.747-34.187h-13.058l-15.144,23.649l-0.876,1.418
		c-0.305-0.486-0.637-1.056-1.011-1.734l-14.503-23.333h-12.924l1.445,2.298c1.628,2.589,3.328,5.259,5.103,8.014l5.375,8.344
		c1.812,2.811,3.602,5.602,5.372,8.37c1.579,2.472,3.101,4.869,4.564,7.191l-22.358,32.783h13.288l0.441-0.695
		c2.262-3.56,4.602-7.168,6.954-10.728c2.403-3.637,4.753-7.261,6.984-10.772l0.022-0.036c0.122-0.161,0.234-0.317,0.334-0.468
		c0.112-0.169,0.225-0.345,0.337-0.528c0.121-0.144,0.233-0.308,0.343-0.498c0.003-0.004,0.005-0.009,0.008-0.013l14.858,23.738
		h13.634l-1.555-2.332C368.876,106.876,365.387,101.656,361.74,96.217z"/>
</g>
<g>
</g>
<g>
</g>
<g>
</g>
<g>
</g>
<g>
</g>
<g>
</g>
</svg>
