<?xml version="1.0" encoding="utf-8"?>
<!-- Generator: Adobe Illustrator 16.0.0, SVG Export Plug-In . SVG Version: 6.00 Build 0)  -->
<!DOCTYPE svg PUBLIC "-//W3C//DTD SVG 1.1//EN" "http://www.w3.org/Graphics/SVG/1.1/DTD/svg11.dtd">
<svg version="1.1" id="Layer_1" xmlns="http://www.w3.org/2000/svg" xmlns:xlink="http://www.w3.org/1999/xlink" x="0px" y="0px"
	 width="512px" height="512px" viewBox="0 0 512 512" enable-background="new 0 0 512 512" xml:space="preserve">
<path d="M255.334,30.993c-75.069,0-135.922,60.854-135.922,135.922s60.853,135.918,135.922,135.918
	c75.066,0,135.917-60.851,135.917-135.918S330.4,30.993,255.334,30.993z"/>
<path d="M479.367,499.008c0.016-0.908,0.039-1.813,0.039-2.726c0-64.675-32.098-168.729-82.37-206.696
	c-34.585,39.309-85.228,64.144-141.701,64.144s-107.119-24.838-141.705-64.144c-50.272,37.968-82.371,142.021-82.371,206.696
	c0,0.913,0.025,1.817,0.037,2.726H479.367z"/>
<g>
</g>
<g>
</g>
<g>
</g>
<g>
</g>
<g>
</g>
<g>
</g>
</svg>
